<mxfile host="app.diagrams.net" agent="Mozilla/5.0 (X11; Linux x86_64) AppleWebKit/537.36 (KHTML, like Gecko) Chrome/129.0.0.0 Safari/537.36" version="26.0.16">
  <diagram name="Page-1" id="pGS40leleZzSf1w9_MKb">
    <mxGraphModel dx="843" dy="443" grid="1" gridSize="10" guides="1" tooltips="1" connect="1" arrows="1" fold="1" page="1" pageScale="1" pageWidth="850" pageHeight="1100" math="0" shadow="0">
      <root>
        <mxCell id="0" />
        <mxCell id="1" parent="0" />
        <mxCell id="lz3d05MwJRwCeHaTPS5S-1" value="&lt;h1&gt;&lt;i&gt;&lt;b&gt;Dashboard&lt;/b&gt;&lt;/i&gt;&lt;/h1&gt;" style="rounded=0;whiteSpace=wrap;html=1;fillColor=none;" vertex="1" parent="1">
          <mxGeometry x="40" y="90" width="710" height="330" as="geometry" />
        </mxCell>
        <mxCell id="lz3d05MwJRwCeHaTPS5S-3" value="Admin Panel" style="text;html=1;align=left;verticalAlign=middle;whiteSpace=wrap;rounded=0;" vertex="1" parent="1">
          <mxGeometry x="40" y="50" width="180" height="30" as="geometry" />
        </mxCell>
        <mxCell id="lz3d05MwJRwCeHaTPS5S-5" value="" style="rounded=0;whiteSpace=wrap;html=1;fillColor=none;" vertex="1" parent="1">
          <mxGeometry x="40" y="90" width="710" height="30" as="geometry" />
        </mxCell>
        <mxCell id="lz3d05MwJRwCeHaTPS5S-6" value="Candates" style="swimlane;fontStyle=0;childLayout=stackLayout;horizontal=1;startSize=30;horizontalStack=0;resizeParent=1;resizeParentMax=0;resizeLast=0;collapsible=1;marginBottom=0;whiteSpace=wrap;html=1;fillColor=#f8cecc;strokeColor=#b85450;" vertex="1" collapsed="1" parent="1">
          <mxGeometry x="130" y="90" width="90" height="30" as="geometry">
            <mxRectangle x="130" y="90" width="110" height="150" as="alternateBounds" />
          </mxGeometry>
        </mxCell>
        <mxCell id="lz3d05MwJRwCeHaTPS5S-7" value="Candidates" style="text;strokeColor=none;fillColor=none;align=left;verticalAlign=middle;spacingLeft=4;spacingRight=4;overflow=hidden;points=[[0,0.5],[1,0.5]];portConstraint=eastwest;rotatable=0;whiteSpace=wrap;html=1;" vertex="1" parent="lz3d05MwJRwCeHaTPS5S-6">
          <mxGeometry y="30" width="110" height="30" as="geometry" />
        </mxCell>
        <mxCell id="lz3d05MwJRwCeHaTPS5S-8" value="Import Candidates" style="text;strokeColor=none;fillColor=none;align=left;verticalAlign=middle;spacingLeft=4;spacingRight=4;overflow=hidden;points=[[0,0.5],[1,0.5]];portConstraint=eastwest;rotatable=0;whiteSpace=wrap;html=1;" vertex="1" parent="lz3d05MwJRwCeHaTPS5S-6">
          <mxGeometry y="60" width="110" height="30" as="geometry" />
        </mxCell>
        <mxCell id="lz3d05MwJRwCeHaTPS5S-25" value="Manage Schema" style="text;strokeColor=none;fillColor=none;align=left;verticalAlign=middle;spacingLeft=4;spacingRight=4;overflow=hidden;points=[[0,0.5],[1,0.5]];portConstraint=eastwest;rotatable=0;whiteSpace=wrap;html=1;" vertex="1" parent="lz3d05MwJRwCeHaTPS5S-6">
          <mxGeometry y="90" width="110" height="30" as="geometry" />
        </mxCell>
        <mxCell id="lz3d05MwJRwCeHaTPS5S-9" value="Layout Mananager" style="text;strokeColor=none;fillColor=none;align=left;verticalAlign=middle;spacingLeft=4;spacingRight=4;overflow=hidden;points=[[0,0.5],[1,0.5]];portConstraint=eastwest;rotatable=0;whiteSpace=wrap;html=1;" vertex="1" parent="lz3d05MwJRwCeHaTPS5S-6">
          <mxGeometry y="120" width="110" height="30" as="geometry" />
        </mxCell>
        <mxCell id="lz3d05MwJRwCeHaTPS5S-10" value="Employer" style="swimlane;fontStyle=0;childLayout=stackLayout;horizontal=1;startSize=30;horizontalStack=0;resizeParent=1;resizeParentMax=0;resizeLast=0;collapsible=1;marginBottom=0;whiteSpace=wrap;html=1;fillColor=#f8cecc;strokeColor=#b85450;" vertex="1" collapsed="1" parent="1">
          <mxGeometry x="240" y="90" width="90" height="30" as="geometry">
            <mxRectangle x="240" y="90" width="110" height="120" as="alternateBounds" />
          </mxGeometry>
        </mxCell>
        <mxCell id="lz3d05MwJRwCeHaTPS5S-11" value="Employer Data" style="text;strokeColor=none;fillColor=none;align=left;verticalAlign=middle;spacingLeft=4;spacingRight=4;overflow=hidden;points=[[0,0.5],[1,0.5]];portConstraint=eastwest;rotatable=0;whiteSpace=wrap;html=1;" vertex="1" parent="lz3d05MwJRwCeHaTPS5S-10">
          <mxGeometry y="30" width="110" height="30" as="geometry" />
        </mxCell>
        <mxCell id="lz3d05MwJRwCeHaTPS5S-13" value="Manage Schema" style="text;strokeColor=none;fillColor=none;align=left;verticalAlign=middle;spacingLeft=4;spacingRight=4;overflow=hidden;points=[[0,0.5],[1,0.5]];portConstraint=eastwest;rotatable=0;whiteSpace=wrap;html=1;" vertex="1" parent="lz3d05MwJRwCeHaTPS5S-10">
          <mxGeometry y="60" width="110" height="30" as="geometry" />
        </mxCell>
        <mxCell id="lz3d05MwJRwCeHaTPS5S-29" value="Layout Mananager" style="text;strokeColor=none;fillColor=none;align=left;verticalAlign=middle;spacingLeft=4;spacingRight=4;overflow=hidden;points=[[0,0.5],[1,0.5]];portConstraint=eastwest;rotatable=0;whiteSpace=wrap;html=1;" vertex="1" parent="lz3d05MwJRwCeHaTPS5S-10">
          <mxGeometry y="90" width="110" height="30" as="geometry" />
        </mxCell>
        <mxCell id="lz3d05MwJRwCeHaTPS5S-14" value="Job" style="swimlane;fontStyle=0;childLayout=stackLayout;horizontal=1;startSize=30;horizontalStack=0;resizeParent=1;resizeParentMax=0;resizeLast=0;collapsible=1;marginBottom=0;whiteSpace=wrap;html=1;fillColor=#f8cecc;strokeColor=#b85450;" vertex="1" collapsed="1" parent="1">
          <mxGeometry x="350" y="90" width="110" height="30" as="geometry">
            <mxRectangle x="350" y="90" width="110" height="150" as="alternateBounds" />
          </mxGeometry>
        </mxCell>
        <mxCell id="lz3d05MwJRwCeHaTPS5S-15" value="Job Data" style="text;strokeColor=none;fillColor=none;align=left;verticalAlign=middle;spacingLeft=4;spacingRight=4;overflow=hidden;points=[[0,0.5],[1,0.5]];portConstraint=eastwest;rotatable=0;whiteSpace=wrap;html=1;" vertex="1" parent="lz3d05MwJRwCeHaTPS5S-14">
          <mxGeometry y="30" width="110" height="30" as="geometry" />
        </mxCell>
        <mxCell id="lz3d05MwJRwCeHaTPS5S-17" value="Manage Schema" style="text;strokeColor=none;fillColor=none;align=left;verticalAlign=middle;spacingLeft=4;spacingRight=4;overflow=hidden;points=[[0,0.5],[1,0.5]];portConstraint=eastwest;rotatable=0;whiteSpace=wrap;html=1;" vertex="1" parent="lz3d05MwJRwCeHaTPS5S-14">
          <mxGeometry y="60" width="110" height="30" as="geometry" />
        </mxCell>
        <mxCell id="lz3d05MwJRwCeHaTPS5S-30" value="Layout Manager" style="text;strokeColor=none;fillColor=none;align=left;verticalAlign=middle;spacingLeft=4;spacingRight=4;overflow=hidden;points=[[0,0.5],[1,0.5]];portConstraint=eastwest;rotatable=0;whiteSpace=wrap;html=1;" vertex="1" parent="lz3d05MwJRwCeHaTPS5S-14">
          <mxGeometry y="90" width="110" height="30" as="geometry" />
        </mxCell>
        <mxCell id="lz3d05MwJRwCeHaTPS5S-21" value="Appied Jobs" style="text;strokeColor=none;fillColor=none;align=left;verticalAlign=middle;spacingLeft=4;spacingRight=4;overflow=hidden;points=[[0,0.5],[1,0.5]];portConstraint=eastwest;rotatable=0;whiteSpace=wrap;html=1;" vertex="1" parent="lz3d05MwJRwCeHaTPS5S-14">
          <mxGeometry y="120" width="110" height="30" as="geometry" />
        </mxCell>
        <mxCell id="lz3d05MwJRwCeHaTPS5S-22" value="Custom Layout" style="rounded=0;whiteSpace=wrap;html=1;fillColor=#dae8fc;strokeColor=#6c8ebf;" vertex="1" parent="1">
          <mxGeometry x="460" y="90" width="120" height="30" as="geometry" />
        </mxCell>
        <mxCell id="lz3d05MwJRwCeHaTPS5S-41" value="&lt;div style=&quot;color: rgb(0, 0, 0); background-color: rgb(255, 255, 255); font-family: &amp;quot;Droid Sans Mono&amp;quot;, &amp;quot;monospace&amp;quot;, monospace; font-weight: normal; font-size: 14px; line-height: 19px; white-space: pre;&quot;&gt;&lt;div&gt;&lt;span style=&quot;color: rgb(163, 21, 21);&quot;&gt;Display Data table with field name, type, count, icons&lt;/span&gt;&lt;/div&gt;&lt;/div&gt;" style="rounded=0;whiteSpace=wrap;html=1;fillColor=none;" vertex="1" parent="1">
          <mxGeometry x="920" y="170" width="570" height="160" as="geometry" />
        </mxCell>
        <mxCell id="lz3d05MwJRwCeHaTPS5S-43" value="seach by name" style="text;strokeColor=none;fillColor=none;align=left;verticalAlign=middle;spacingLeft=4;spacingRight=4;overflow=hidden;points=[[0,0.5],[1,0.5]];portConstraint=eastwest;rotatable=0;whiteSpace=wrap;html=1;" vertex="1" parent="1">
          <mxGeometry x="1370" y="130" width="120" height="30" as="geometry" />
        </mxCell>
        <mxCell id="lz3d05MwJRwCeHaTPS5S-44" value="Layout manager" style="text;html=1;align=center;verticalAlign=middle;whiteSpace=wrap;rounded=0;fillColor=#ffe6cc;strokeColor=#d79b00;" vertex="1" parent="1">
          <mxGeometry x="1115" y="40" width="180" height="30" as="geometry" />
        </mxCell>
        <mxCell id="lz3d05MwJRwCeHaTPS5S-46" value="select type" style="swimlane;fontStyle=0;childLayout=stackLayout;horizontal=1;startSize=30;horizontalStack=0;resizeParent=1;resizeParentMax=0;resizeLast=0;collapsible=1;marginBottom=0;whiteSpace=wrap;html=1;" vertex="1" collapsed="1" parent="1">
          <mxGeometry x="920" y="110" width="100" height="30" as="geometry">
            <mxRectangle x="920" y="110" width="140" height="120" as="alternateBounds" />
          </mxGeometry>
        </mxCell>
        <mxCell id="lz3d05MwJRwCeHaTPS5S-47" value="&lt;div style=&quot;color: #000000;background-color: #ffffff;font-family: &#39;Droid Sans Mono&#39;, &#39;monospace&#39;, monospace;font-weight: normal;font-size: 14px;line-height: 19px;white-space: pre;&quot;&gt;&lt;div&gt;&lt;span style=&quot;color: #a31515;&quot;&gt;Candidate&lt;/span&gt;&lt;/div&gt;&lt;/div&gt;" style="text;strokeColor=none;fillColor=none;align=left;verticalAlign=middle;spacingLeft=4;spacingRight=4;overflow=hidden;points=[[0,0.5],[1,0.5]];portConstraint=eastwest;rotatable=0;whiteSpace=wrap;html=1;" vertex="1" parent="lz3d05MwJRwCeHaTPS5S-46">
          <mxGeometry y="30" width="140" height="30" as="geometry" />
        </mxCell>
        <mxCell id="lz3d05MwJRwCeHaTPS5S-48" value="&lt;div style=&quot;color: rgb(0, 0, 0); background-color: rgb(255, 255, 255); font-family: &amp;quot;Droid Sans Mono&amp;quot;, &amp;quot;monospace&amp;quot;, monospace; font-weight: normal; font-size: 14px; line-height: 19px; white-space: pre;&quot;&gt;&lt;div&gt;&lt;span style=&quot;color: rgb(163, 21, 21);&quot;&gt;Job&lt;/span&gt;&lt;/div&gt;&lt;/div&gt;" style="text;strokeColor=none;fillColor=none;align=left;verticalAlign=middle;spacingLeft=4;spacingRight=4;overflow=hidden;points=[[0,0.5],[1,0.5]];portConstraint=eastwest;rotatable=0;whiteSpace=wrap;html=1;" vertex="1" parent="lz3d05MwJRwCeHaTPS5S-46">
          <mxGeometry y="60" width="140" height="30" as="geometry" />
        </mxCell>
        <mxCell id="lz3d05MwJRwCeHaTPS5S-49" value="&lt;div style=&quot;background-color: rgb(255, 255, 255); font-family: &amp;quot;Droid Sans Mono&amp;quot;, &amp;quot;monospace&amp;quot;, monospace; font-weight: normal; font-size: 14px; line-height: 19px; white-space: pre; color: rgb(0, 0, 0);&quot;&gt;&lt;font color=&quot;#a31515&quot;&gt;Employee&lt;/font&gt;&lt;/div&gt;" style="text;strokeColor=none;fillColor=none;align=left;verticalAlign=middle;spacingLeft=4;spacingRight=4;overflow=hidden;points=[[0,0.5],[1,0.5]];portConstraint=eastwest;rotatable=0;whiteSpace=wrap;html=1;" vertex="1" parent="lz3d05MwJRwCeHaTPS5S-46">
          <mxGeometry y="90" width="140" height="30" as="geometry" />
        </mxCell>
        <mxCell id="lz3d05MwJRwCeHaTPS5S-50" value="&lt;div style=&quot;color: rgb(0, 0, 0); background-color: rgb(255, 255, 255); font-family: &amp;quot;Droid Sans Mono&amp;quot;, &amp;quot;monospace&amp;quot;, monospace; font-weight: normal; font-size: 14px; line-height: 19px; white-space: pre;&quot;&gt;&lt;br&gt;&lt;/div&gt;" style="rounded=0;whiteSpace=wrap;html=1;fillColor=none;" vertex="1" parent="1">
          <mxGeometry x="910" y="480" width="570" height="260" as="geometry" />
        </mxCell>
        <mxCell id="lz3d05MwJRwCeHaTPS5S-51" value="Layout Add manager" style="text;html=1;align=center;verticalAlign=middle;whiteSpace=wrap;rounded=0;fillColor=#ffe6cc;strokeColor=#d79b00;" vertex="1" parent="1">
          <mxGeometry x="1105" y="390" width="180" height="30" as="geometry" />
        </mxCell>
        <mxCell id="lz3d05MwJRwCeHaTPS5S-52" value="" style="endArrow=classic;html=1;rounded=0;exitX=0.5;exitY=1;exitDx=0;exitDy=0;entryX=0.501;entryY=0.005;entryDx=0;entryDy=0;entryPerimeter=0;" edge="1" parent="1" source="lz3d05MwJRwCeHaTPS5S-50" target="lz3d05MwJRwCeHaTPS5S-50">
          <mxGeometry width="50" height="50" relative="1" as="geometry">
            <mxPoint x="1130" y="540" as="sourcePoint" />
            <mxPoint x="1180" y="490" as="targetPoint" />
          </mxGeometry>
        </mxCell>
        <mxCell id="lz3d05MwJRwCeHaTPS5S-53" value="select type" style="swimlane;fontStyle=0;childLayout=stackLayout;horizontal=1;startSize=30;horizontalStack=0;resizeParent=1;resizeParentMax=0;resizeLast=0;collapsible=1;marginBottom=0;whiteSpace=wrap;html=1;" vertex="1" collapsed="1" parent="1">
          <mxGeometry x="1370" y="440" width="100" height="30" as="geometry">
            <mxRectangle x="1370" y="440" width="140" height="120" as="alternateBounds" />
          </mxGeometry>
        </mxCell>
        <mxCell id="lz3d05MwJRwCeHaTPS5S-54" value="&lt;div style=&quot;color: #000000;background-color: #ffffff;font-family: &#39;Droid Sans Mono&#39;, &#39;monospace&#39;, monospace;font-weight: normal;font-size: 14px;line-height: 19px;white-space: pre;&quot;&gt;&lt;div&gt;&lt;span style=&quot;color: #a31515;&quot;&gt;Candidate&lt;/span&gt;&lt;/div&gt;&lt;/div&gt;" style="text;strokeColor=none;fillColor=none;align=left;verticalAlign=middle;spacingLeft=4;spacingRight=4;overflow=hidden;points=[[0,0.5],[1,0.5]];portConstraint=eastwest;rotatable=0;whiteSpace=wrap;html=1;" vertex="1" parent="lz3d05MwJRwCeHaTPS5S-53">
          <mxGeometry y="30" width="140" height="30" as="geometry" />
        </mxCell>
        <mxCell id="lz3d05MwJRwCeHaTPS5S-55" value="&lt;div style=&quot;color: rgb(0, 0, 0); background-color: rgb(255, 255, 255); font-family: &amp;quot;Droid Sans Mono&amp;quot;, &amp;quot;monospace&amp;quot;, monospace; font-weight: normal; font-size: 14px; line-height: 19px; white-space: pre;&quot;&gt;&lt;div&gt;&lt;span style=&quot;color: rgb(163, 21, 21);&quot;&gt;Job&lt;/span&gt;&lt;/div&gt;&lt;/div&gt;" style="text;strokeColor=none;fillColor=none;align=left;verticalAlign=middle;spacingLeft=4;spacingRight=4;overflow=hidden;points=[[0,0.5],[1,0.5]];portConstraint=eastwest;rotatable=0;whiteSpace=wrap;html=1;" vertex="1" parent="lz3d05MwJRwCeHaTPS5S-53">
          <mxGeometry y="60" width="140" height="30" as="geometry" />
        </mxCell>
        <mxCell id="lz3d05MwJRwCeHaTPS5S-56" value="&lt;div style=&quot;background-color: rgb(255, 255, 255); font-family: &amp;quot;Droid Sans Mono&amp;quot;, &amp;quot;monospace&amp;quot;, monospace; font-weight: normal; font-size: 14px; line-height: 19px; white-space: pre; color: rgb(0, 0, 0);&quot;&gt;&lt;font color=&quot;#a31515&quot;&gt;Employee&lt;/font&gt;&lt;/div&gt;" style="text;strokeColor=none;fillColor=none;align=left;verticalAlign=middle;spacingLeft=4;spacingRight=4;overflow=hidden;points=[[0,0.5],[1,0.5]];portConstraint=eastwest;rotatable=0;whiteSpace=wrap;html=1;" vertex="1" parent="lz3d05MwJRwCeHaTPS5S-53">
          <mxGeometry y="90" width="140" height="30" as="geometry" />
        </mxCell>
        <mxCell id="lz3d05MwJRwCeHaTPS5S-57" value="schema&amp;nbsp; clm mane" style="text;html=1;align=center;verticalAlign=middle;whiteSpace=wrap;rounded=0;" vertex="1" parent="1">
          <mxGeometry x="1215" y="495" width="120" height="30" as="geometry" />
        </mxCell>
        <mxCell id="lz3d05MwJRwCeHaTPS5S-63" value="save" style="rounded=1;whiteSpace=wrap;html=1;" vertex="1" parent="1">
          <mxGeometry x="1300" y="760" width="180" height="40" as="geometry" />
        </mxCell>
        <mxCell id="lz3d05MwJRwCeHaTPS5S-64" value="layout name inpput" style="rounded=0;whiteSpace=wrap;html=1;" vertex="1" parent="1">
          <mxGeometry x="910" y="440" width="130" height="30" as="geometry" />
        </mxCell>
        <mxCell id="lz3d05MwJRwCeHaTPS5S-65" value="schema&amp;nbsp; clm mane" style="text;html=1;align=center;verticalAlign=middle;whiteSpace=wrap;rounded=0;" vertex="1" parent="1">
          <mxGeometry x="1215" y="535" width="120" height="30" as="geometry" />
        </mxCell>
        <mxCell id="lz3d05MwJRwCeHaTPS5S-67" value="schema&amp;nbsp; clm mane" style="text;html=1;align=center;verticalAlign=middle;whiteSpace=wrap;rounded=0;" vertex="1" parent="1">
          <mxGeometry x="920" y="505" width="120" height="30" as="geometry" />
        </mxCell>
        <mxCell id="lz3d05MwJRwCeHaTPS5S-68" value="schema&amp;nbsp; clm mane" style="text;html=1;align=center;verticalAlign=middle;whiteSpace=wrap;rounded=0;" vertex="1" parent="1">
          <mxGeometry x="920" y="545" width="120" height="30" as="geometry" />
        </mxCell>
        <mxCell id="lz3d05MwJRwCeHaTPS5S-69" value="schema&amp;nbsp; clm mane" style="text;html=1;align=center;verticalAlign=middle;whiteSpace=wrap;rounded=0;" vertex="1" parent="1">
          <mxGeometry x="920" y="585" width="120" height="30" as="geometry" />
        </mxCell>
      </root>
    </mxGraphModel>
  </diagram>
</mxfile>
